<svg id="arrow-back" xmlns="http://www.w3.org/2000/svg" width="24" height="24" viewBox="0 0 24 24">
  <rect id="Rectangle_29" data-name="Rectangle 29" width="24" height="24" transform="translate(24) rotate(90)" fill="#91929a" opacity="0"/>
  <path id="Path_14" data-name="Path 14" d="M19,11H7.14l3.63-4.36A1,1,0,0,0,9.23,5.36l-5,6a1.19,1.19,0,0,0-.09.15.127.127,0,0,1-.07.13.961.961,0,0,0,0,.72.127.127,0,0,0,.07.13,1.19,1.19,0,0,0,.09.15l5,6a1,1,0,1,0,1.54-1.28L7.14,13H19a1,1,0,0,0,0-2Z" fill="#91929a"/>
</svg>
