<svg id="play-circle" xmlns="http://www.w3.org/2000/svg" width="24" height="24" viewBox="0 0 24 24">
  <rect id="Rectangle_25" data-name="Rectangle 25" width="24" height="24" fill="#3e9365" opacity="0"/>
  <path id="Path_12" data-name="Path 12" d="M12,2A10,10,0,1,0,22,12,10,10,0,0,0,12,2Zm0,18a8,8,0,1,1,8-8A8,8,0,0,1,12,20Z" fill="#3e9365"/>
  <path id="Path_13" data-name="Path 13" d="M12.34,7.45a1.7,1.7,0,0,0-1.85-.3,1.6,1.6,0,0,0-1,1.48v6.74a1.6,1.6,0,0,0,1,1.48,1.68,1.68,0,0,0,.69.15,1.74,1.74,0,0,0,1.16-.45L16,13.18a1.6,1.6,0,0,0,0-2.36ZM11.5,14.6V9.4L14.31,12Z" fill="#3e9365"/>
</svg>
